<svg xmlns="http://www.w3.org/2000/svg" width="81" height="16" viewBox="0 0 81 16">
    <g fill="none" fill-rule="evenodd">
        <path d="M52.508 3.704h-2.139v3.379h2.139c1.178 0 2.247-.357 2.247-1.69 0-1.332-1.054-1.689-2.247-1.689zM37.831 3.704h-2.495V7.13h2.495c1.116 0 1.875-.573 1.875-1.72s-.759-1.705-1.875-1.705zM22.441 5.347a7.144 7.144 0 0 1-.387-1.503 7.144 7.144 0 0 1-.387 1.503l-1.52 4.277h3.813l-1.519-4.277z"/>
        <path fill="#FFF" fill-rule="nonzero" d="M9.407 11.98a4.362 4.362 0 0 1-1.007.109c-1.69 0-4.386-.698-4.386-4.355 0-3.038 2.263-4.278 4.65-4.278 1.487 0 2.975.419 4.091 1.178V.93A11.952 11.952 0 0 0 8.168 0C4.03 0 0 2.2 0 7.718c0 5.378 3.999 7.718 8.214 7.718a13.056 13.056 0 0 0 4.913-.992V6.99h-3.72v4.99zM19.946.325l-5.812 14.801h4.014l.853-2.324h6.137l.853 2.324h4.014L24.177.326h-4.23zm.217 9.3l1.519-4.278c.186-.48.31-.992.387-1.503.078.511.202 1.022.388 1.503l1.519 4.277h-3.813zM60.583 15.126h3.92V.326h-3.92zM40.9 9.748c1.627-.65 2.836-1.983 2.836-4.448 0-3.905-3.069-4.99-6.075-4.99h-6.246v14.8h3.921v-4.804h1.69l3.533 4.82h4.417L40.9 9.748zM37.83 7.13h-2.495V3.704h2.48c1.116 0 1.875.574 1.875 1.72 0 1.147-.744 1.705-1.86 1.705zM75.74 7.424L71.168.325h-5.192l4.773 7.099-5.083 7.702h4.556l3.007-4.96 3.007 4.96h4.587zM52.322.325h-5.858v14.817h3.905v-4.65h1.938c3.657-.015 6.447-1.178 6.447-5.083 0-3.906-2.774-5.084-6.432-5.084zm.186 6.773h-2.139V3.704h2.139c1.193 0 2.247.357 2.247 1.69 0 1.332-1.054 1.704-2.247 1.704z"/>
        <path fill="#FEBF01" fill-rule="nonzero" d="M75.895.17h4.525v4.526h-4.525z"/>
    </g>
</svg>
